<mxfile host="app.diagrams.net" modified="2024-01-15T10:53:40.580Z" agent="Mozilla/5.0 (Windows NT 10.0; Win64; x64) AppleWebKit/537.36 (KHTML, like Gecko) Chrome/120.0.0.0 Safari/537.36" version="22.1.18" etag="MF8v5TRYxTObAI7TVK7c" type="github">
  <diagram name="Page-1" id="7H27vU_1-Wezavc46kDc">
    <mxGraphModel>
      <root>
        <mxCell id="0" />
        <mxCell id="1" parent="0" />
      </root>
    </mxGraphModel>
  </diagram>
</mxfile>
